<svg version="1.1" id="Layer_1" x="0px" y="0px" viewBox="0 0 1400 980" enable-background="new 0 0 1400 980" xml:space="preserve" sodipodi:docname="laranja.svg" inkscape:version="1.1 (c4e8f9ed74, 2021-05-24)" xmlns:inkscape="http://www.inkscape.org/namespaces/inkscape" xmlns:sodipodi="http://sodipodi.sourceforge.net/DTD/sodipodi-0.dtd" xmlns="http://www.w3.org/2000/svg" xmlns:svg="http://www.w3.org/2000/svg" class="animate-svg"><defs id="defs184"><style>.animate-svg path{-webkit-animation:draw ease-in-out forwards;animation:draw ease-in-out forwards;stroke:#000}.animate-svg{-webkit-animation:fillopacity 3 ease-in-out forwards;animation:fillopacity 3s ease-in-out forwards}@-webkit-keyframes draw{100%{stroke-dashoffset:0}}@keyframes draw{100%{stroke-dashoffset:0}}@-webkit-keyframes fillopacity{0%,70%{fill-opacity:0;stroke-width:0.5%}100%{fill-opacity:1;stroke-width:0}}@keyframes fillopacity{0%,70%{fill-opacity:0;stroke-width:0.5%}100%{fill-opacity:1;stroke-width:0}}</style>
	
	
	
	
	
	
	
	
</defs><sodipodi:namedview id="namedview182" pagecolor="#505050" bordercolor="#eeeeee" borderopacity="1" inkscape:pageshadow="0" inkscape:pageopacity="0" inkscape:pagecheckerboard="0" showgrid="false" inkscape:zoom="0.26938776" inkscape:cx="926.17424" inkscape:cy="694.16667" inkscape:window-width="1366" inkscape:window-height="715" inkscape:window-x="0" inkscape:window-y="25" inkscape:window-maximized="1" inkscape:current-layer="Layer_1"></sodipodi:namedview>

<g id="XMLID_139_" transform="matrix(3.252266,0,0,3.252266,-2079.7695,-295.7293)"><path id="XMLID_26_" fill="#561b12" d="m 856.8,172.5 c 0,0 11.2,-45.4 20.7,-58.8 -9.5,-12.3 -26.9,-6.2 -26.9,-6.2 0,0 -5.6,51 -2.8,65.5 2.8,14.6 9,-0.5 9,-0.5 z" style="stroke-dasharray: 174.486; stroke-dashoffset: 174.486; animation-delay: 0s; animation-duration: 1.91217s;"></path><g id="XMLID_38_"><path id="XMLID_27_" fill="#bed730" d="m 766.5,103.4 84.2,42 c 0,0 -57.9,47.3 -84.2,-42 z" style="stroke-dasharray: 210.58; stroke-dashoffset: 210.58; animation-delay: 0.125s; animation-duration: 2.24261s;"></path><path id="XMLID_48_" fill="#9ccb3b" d="m 766.5,103.4 84.2,42 c 0,0 2.9,-74.7 -84.2,-42 z" style="stroke-dasharray: 210.56; stroke-dashoffset: 210.56; animation-delay: 0.25s; animation-duration: 2.24243s;"></path></g><circle id="XMLID_2_" transform="matrix(0.7071,-0.7071,0.7071,0.7071,52.601,685.8265)" fill="#f57f22" cx="854.20001" cy="279.39999" r="108.1"></circle><g id="XMLID_23_"><path id="XMLID_46_" fill="#bc0e3b" d="m 883,307.7 c 0,16.1 -12.9,29.1 -28.9,29.1 -15.9,0 -28.9,-13 -28.9,-29.1 z" style="stroke-dasharray: 148.927; stroke-dashoffset: 148.927; animation-delay: 0.375s; animation-duration: 1.68682s;"></path><g id="XMLID_39_"><g id="XMLID_43_"><circle id="XMLID_45_" cx="807.40002" cy="257.89999" r="12.9"></circle><circle id="XMLID_44_" fill="#ffffff" cx="803.20001" cy="253.7" r="4.1999998"></circle></g><g id="XMLID_40_"><circle id="XMLID_42_" cx="900.90002" cy="257.89999" r="12.9"></circle><circle id="XMLID_41_" fill="#ffffff" cx="896.70001" cy="253.7" r="4.1999998"></circle></g></g><g id="XMLID_24_"><circle id="XMLID_28_" fill="#f7a1a6" cx="913.09998" cy="297.10001" r="10.6"></circle><circle id="XMLID_25_" fill="#f7a1a6" cx="795.20001" cy="297.10001" r="10.6"></circle></g></g><g id="XMLID_236_"><path id="XMLID_3_" fill="#d06028" d="m 908.1,357.7 c 0,2.7 2.2,4.8 4.8,4.8 2.7,0 4.8,-2.2 4.8,-4.8 0,-2.7 -2.2,-4.8 -4.8,-4.8 -2.6,0 -4.8,2.1 -4.8,4.8 z" style="stroke-dasharray: 30.1623; stroke-dashoffset: 30.1623; animation-delay: 0.5s; animation-duration: 1.29644s;"></path><circle id="XMLID_109_" fill="#d06028" cx="919.59998" cy="343.79999" r="4.8000002"></circle><path id="XMLID_110_" fill="#d06028" d="m 894.9,360.6 c 0,2.1 1.7,3.9 3.9,3.9 2.1,0 3.9,-1.7 3.9,-3.9 0,-2.1 -1.7,-3.9 -3.9,-3.9 -2.2,0 -3.9,1.8 -3.9,3.9 z" style="stroke-dasharray: 24.5019; stroke-dashoffset: 24.5019; animation-delay: 0.625s; animation-duration: 1.47s;"></path><circle id="XMLID_111_" fill="#faa744" cx="828.20001" cy="199.2" r="4.8000002"></circle><path id="XMLID_112_" fill="#faa744" d="m 804,199.2 c 0,2.7 2.2,4.8 4.8,4.8 2.7,0 4.8,-2.2 4.8,-4.8 0,-2.7 -2.2,-4.8 -4.8,-4.8 -2.7,0 -4.8,2.2 -4.8,4.8 z" style="stroke-dasharray: 30.1623; stroke-dashoffset: 30.1623; animation-delay: 0.75s; animation-duration: 1.29643s;"></path><path id="XMLID_115_" fill="#faa744" d="m 800.1,217.2 c 0,2.4 2,4.4 4.4,4.4 2.4,0 4.4,-2 4.4,-4.4 0,-2.4 -2,-4.4 -4.4,-4.4 -2.5,0.1 -4.4,2 -4.4,4.4 z" style="stroke-dasharray: 27.5903; stroke-dashoffset: 27.5903; animation-delay: 0.875s; animation-duration: 1.3636s;"></path></g></g></svg>