<svg version="1.1" id="Layer_1" x="0px" y="0px" viewBox="0 0 1400 980" enable-background="new 0 0 1400 980" xml:space="preserve" sodipodi:docname="maca.svg" inkscape:version="1.1 (c4e8f9ed74, 2021-05-24)" xmlns:inkscape="http://www.inkscape.org/namespaces/inkscape" xmlns:sodipodi="http://sodipodi.sourceforge.net/DTD/sodipodi-0.dtd" xmlns="http://www.w3.org/2000/svg" xmlns:svg="http://www.w3.org/2000/svg" class="animate-svg"><defs id="defs184"><style>.animate-svg path{-webkit-animation:draw ease-in-out forwards;animation:draw ease-in-out forwards;stroke:#000}.animate-svg{-webkit-animation:fillopacity 3 ease-in-out forwards;animation:fillopacity 3s ease-in-out forwards}@-webkit-keyframes draw{100%{stroke-dashoffset:0}}@keyframes draw{100%{stroke-dashoffset:0}}@-webkit-keyframes fillopacity{0%,70%{fill-opacity:0;stroke-width:0.5%}100%{fill-opacity:1;stroke-width:0}}@keyframes fillopacity{0%,70%{fill-opacity:0;stroke-width:0.5%}100%{fill-opacity:1;stroke-width:0}}</style>
	
	
	
	
	
	
	
	
</defs><sodipodi:namedview id="namedview182" pagecolor="#505050" bordercolor="#eeeeee" borderopacity="1" inkscape:pageshadow="0" inkscape:pageopacity="0" inkscape:pagecheckerboard="0" showgrid="false" inkscape:zoom="0.26938776" inkscape:cx="926.17424" inkscape:cy="475.15151" inkscape:window-width="1366" inkscape:window-height="715" inkscape:window-x="0" inkscape:window-y="25" inkscape:window-maximized="1" inkscape:current-layer="Layer_1"></sodipodi:namedview>
<g id="XMLID_270_" transform="translate(207.77762,-89.93205)">
		
		
		
		
		
	</g>
<g id="XMLID_271_" transform="matrix(3.506461,0,0,3.506461,-1314.7607,-2091.9894)"><path id="XMLID_71_" fill="#561b12" d="m 577.8,678.7 c 0,0 11.2,-45.4 20.7,-58.8 -9.5,-12.3 -26.9,-6.2 -26.9,-6.2 0,0 -5.6,51 -2.8,65.5 2.9,14.6 9,-0.5 9,-0.5 z" style="stroke-dasharray: 174.479; stroke-dashoffset: 174.479; animation-delay: 0s; animation-duration: 0.700357s;"></path><g id="XMLID_65_"><path id="XMLID_69_" fill="#bed730" d="m 487.5,609.7 84.2,42 c 0.1,-0.1 -57.8,47.2 -84.2,-42 z" style="stroke-dasharray: 210.464; stroke-dashoffset: 210.464; animation-delay: 0.166667s; animation-duration: 0.761556s;"></path><path id="XMLID_66_" fill="#9ccb3b" d="m 487.5,609.7 84.2,42 c 0.1,-0.1 3,-74.8 -84.2,-42 z" style="stroke-dasharray: 210.698; stroke-dashoffset: 210.698; animation-delay: 0.333333s; animation-duration: 0.761996s;"></path></g><path id="XMLID_61_" fill="#ec2227" d="m 585.2,673.5 c -7.4,3.3 -15.7,3.3 -23.1,0 -43,-18.9 -116.9,-9.9 -111.2,70 3.8,53.4 28.9,100 53,119.6 17.7,14.3 38.8,10.5 53.2,5 10.7,-4.1 22.4,-4.1 33.1,0 14.3,5.5 35.5,9.3 53.2,-5 24.1,-19.6 49.2,-66.2 53,-119.6 5.7,-79.9 -68.2,-88.9 -111.2,-70 z" style="stroke-dasharray: 763.859; stroke-dashoffset: 763.859; animation-delay: 0.5s; animation-duration: 2.15041s;"></path><g id="XMLID_57_"><path id="XMLID_98_" fill="#bc0e3b" d="m 602.5,785.9 c 0,16.1 -12.9,29.1 -28.9,29.1 -15.9,0 -28.9,-13 -28.9,-29.1 z" style="stroke-dasharray: 148.927; stroke-dashoffset: 148.927; animation-delay: 0.666667s; animation-duration: 0.667972s;"></path><g id="XMLID_91_"><g id="XMLID_95_"><circle id="XMLID_97_" cx="526.90002" cy="736" r="12.9"></circle><circle id="XMLID_96_" fill="#ffffff" cx="522.70001" cy="731.79999" r="4.1999998"></circle></g><g id="XMLID_92_"><circle id="XMLID_94_" cx="620.40002" cy="736" r="12.9"></circle><circle id="XMLID_93_" fill="#ffffff" cx="616.20001" cy="731.79999" r="4.1999998"></circle></g></g><g id="XMLID_58_"><circle id="XMLID_68_" fill="#f37778" cx="632.59998" cy="775.20001" r="10.6"></circle><circle id="XMLID_63_" fill="#f37778" cx="514.70001" cy="775.20001" r="10.6"></circle></g></g><g id="XMLID_114_"><circle id="XMLID_266_" fill="#f37778" cx="511.29999" cy="692.70001" r="4.8000002"></circle><circle id="XMLID_183_" fill="#f37778" cx="491.79999" cy="692.70001" r="4.8000002"></circle><path id="XMLID_119_" fill="#f37778" d="m 483.1,710.7 c 0,2.4 2,4.4 4.4,4.4 2.4,0 4.4,-2 4.4,-4.4 0,-2.4 -2,-4.4 -4.4,-4.4 -2.4,0 -4.4,1.9 -4.4,4.4 z" style="stroke-dasharray: 27.6198; stroke-dashoffset: 27.6198; animation-delay: 0.833333s; animation-duration: 1.47s;"></path></g></g></svg>