<svg version="1.1" id="Layer_1" x="0px" y="0px" viewBox="0 0 1400 980" enable-background="new 0 0 1400 980" xml:space="preserve" sodipodi:docname="pera.svg" inkscape:version="1.1 (c4e8f9ed74, 2021-05-24)" xmlns:inkscape="http://www.inkscape.org/namespaces/inkscape" xmlns:sodipodi="http://sodipodi.sourceforge.net/DTD/sodipodi-0.dtd" xmlns="http://www.w3.org/2000/svg" xmlns:svg="http://www.w3.org/2000/svg" class="animate-svg"><defs id="defs184"><style>.animate-svg path{-webkit-animation:draw ease-in-out forwards;animation:draw ease-in-out forwards;stroke:#000}.animate-svg{-webkit-animation:fillopacity 3 ease-in-out forwards;animation:fillopacity 3s ease-in-out forwards}@-webkit-keyframes draw{100%{stroke-dashoffset:0}}@keyframes draw{100%{stroke-dashoffset:0}}@-webkit-keyframes fillopacity{0%,70%{fill-opacity:0;stroke-width:0.5%}100%{fill-opacity:1;stroke-width:0}}@keyframes fillopacity{0%,70%{fill-opacity:0;stroke-width:0.5%}100%{fill-opacity:1;stroke-width:0}}</style>
	
	
	
	
	
	
	
	
</defs><sodipodi:namedview id="namedview182" pagecolor="#505050" bordercolor="#eeeeee" borderopacity="1" inkscape:pageshadow="0" inkscape:pageopacity="0" inkscape:pagecheckerboard="0" showgrid="false" inkscape:zoom="0.26938776" inkscape:cx="926.17424" inkscape:cy="694.16667" inkscape:window-width="1366" inkscape:window-height="715" inkscape:window-x="0" inkscape:window-y="25" inkscape:window-maximized="1" inkscape:current-layer="Layer_1"></sodipodi:namedview>

<g id="XMLID_137_" transform="matrix(3.1289788,0,0,3.1289788,-2918.7641,-287.39858)"><path id="XMLID_47_" fill="#c2d730" d="m 1211,247.1 c 0,-51 -31.3,-66.8 -51.3,-66.8 -20,0 -51.3,15.8 -51.3,66.8 0,51 -51.3,44.2 -51.3,97.6 0,54.3 62.1,58.4 89.7,57.5 8.6,-0.3 17.3,-0.3 25.9,0 27.6,0.9 89.7,-3.3 89.7,-57.5 -0.1,-60.2 -51.4,-46.6 -51.4,-97.6 z" style="stroke-dasharray: 685.4; stroke-dashoffset: 685.4; animation-delay: 0s; animation-duration: 2.1554s;"></path><path id="XMLID_51_" fill="#561b12" d="m 1167.3,181.6 c 0,0 12.5,-50.7 23.2,-65.7 -10.6,-13.8 -30,-6.9 -30,-6.9 0,0 -6.3,56.9 -3.1,73.2 3,16.3 9.9,-0.6 9.9,-0.6 z" style="stroke-dasharray: 194.886; stroke-dashoffset: 194.886; animation-delay: 0.125s; animation-duration: 0.791939s;"></path><g id="XMLID_32_"><path id="XMLID_50_" fill="#bed730" d="m 1066.4,104.4 94.1,46.9 c 0,0 -64.7,52.9 -94.1,-46.9 z" style="stroke-dasharray: 235.319; stroke-dashoffset: 235.319; animation-delay: 0.25s; animation-duration: 0.882346s;"></path><path id="XMLID_49_" fill="#9ccb3b" d="m 1066.4,104.4 94.1,46.9 c 0,0 3.3,-83.5 -94.1,-46.9 z" style="stroke-dasharray: 235.318; stroke-dashoffset: 235.318; animation-delay: 0.375s; animation-duration: 0.882345s;"></path></g><g id="XMLID_60_"><path id="XMLID_79_" fill="#bc0e3b" d="m 1181.5,339.9 c 0,14 -11.2,25.3 -25.1,25.3 -13.9,0 -25.1,-11.3 -25.1,-25.3 z" style="stroke-dasharray: 129.408; stroke-dashoffset: 129.408; animation-delay: 0.5s; animation-duration: 0.6899s;"></path><g id="XMLID_72_"><g id="XMLID_76_"><circle id="XMLID_78_" transform="matrix(0.2298,-0.9732,0.9732,0.2298,570.7988,1314.3699)" cx="1115.8" cy="296.60001" r="11.2"></circle><circle id="XMLID_77_" fill="#ffffff" cx="1112.1" cy="292.89999" r="3.5999999"></circle></g><g id="XMLID_73_"><circle id="XMLID_75_" transform="matrix(0.2298,-0.9732,0.9732,0.2298,633.3794,1393.4437)" cx="1197" cy="296.60001" r="11.2"></circle><circle id="XMLID_74_" fill="#ffffff" cx="1193.4" cy="292.89999" r="3.5999999"></circle></g></g><g id="XMLID_62_"><circle id="XMLID_67_" fill="#f7a1a6" cx="1207.6" cy="330.60001" r="9.1999998"></circle><circle id="XMLID_64_" fill="#f7a1a6" cx="1105.2" cy="330.60001" r="9.1999998"></circle></g></g><path id="XMLID_191_" fill="#9ccb3b" d="m 1175.9,204 c -1.4,2.3 -4.4,3 -6.7,1.5 -2.3,-1.4 -3,-4.4 -1.5,-6.7 1.4,-2.3 4.4,-3 6.7,-1.5 2.2,1.5 2.9,4.5 1.5,6.7 z" style="stroke-dasharray: 30.5902; stroke-dashoffset: 30.5902; animation-delay: 0.625s; animation-duration: 1.33494s;"></path><path id="XMLID_123_" fill="#9ccb3b" d="m 1194.6,214.4 c -1.4,2.3 -4.4,3 -6.7,1.5 -2.3,-1.4 -3,-4.4 -1.5,-6.7 1.4,-2.3 4.4,-3 6.7,-1.5 2.2,1.4 2.9,4.4 1.5,6.7 z" style="stroke-dasharray: 30.6058; stroke-dashoffset: 30.6058; animation-delay: 0.75s; animation-duration: 1.33436s;"></path><path id="XMLID_117_" fill="#9ccb3b" d="m 1186.1,231.7 c -1.3,2 -4,2.7 -6,1.4 -2,-1.3 -2.7,-4 -1.4,-6 1.3,-2 4,-2.7 6,-1.4 2.1,1.2 2.7,3.9 1.4,6 z" style="stroke-dasharray: 27.3934; stroke-dashoffset: 27.3934; animation-delay: 0.875s; animation-duration: 1.47s;"></path></g></svg>