<svg version="1.1" id="Layer_1" x="0px" y="0px" viewBox="0 0 1400 980" enable-background="new 0 0 1400 980" xml:space="preserve" sodipodi:docname="morango.svg" inkscape:version="1.1 (c4e8f9ed74, 2021-05-24)" xmlns:inkscape="http://www.inkscape.org/namespaces/inkscape" xmlns:sodipodi="http://sodipodi.sourceforge.net/DTD/sodipodi-0.dtd" xmlns="http://www.w3.org/2000/svg" xmlns:svg="http://www.w3.org/2000/svg" class="animate-svg"><defs id="defs184"><style>.animate-svg path{-webkit-animation:draw ease-in-out forwards;animation:draw ease-in-out forwards;stroke:#000}.animate-svg{-webkit-animation:fillopacity 3 ease-in-out forwards;animation:fillopacity 3s ease-in-out forwards}@-webkit-keyframes draw{100%{stroke-dashoffset:0}}@keyframes draw{100%{stroke-dashoffset:0}}@-webkit-keyframes fillopacity{0%,70%{fill-opacity:0;stroke-width:0.5%}100%{fill-opacity:1;stroke-width:0}}@keyframes fillopacity{0%,70%{fill-opacity:0;stroke-width:0.5%}100%{fill-opacity:1;stroke-width:0}}</style>
	
	
	
	
	
	
	
	
</defs><sodipodi:namedview id="namedview182" pagecolor="#505050" bordercolor="#eeeeee" borderopacity="1" inkscape:pageshadow="0" inkscape:pageopacity="0" inkscape:pagecheckerboard="0" showgrid="false" inkscape:zoom="0.26938776" inkscape:cx="926.17424" inkscape:cy="475.15151" inkscape:window-width="1366" inkscape:window-height="715" inkscape:window-x="0" inkscape:window-y="25" inkscape:window-maximized="1" inkscape:current-layer="XMLID_270_"></sodipodi:namedview>
<g id="XMLID_270_" transform="translate(207.77762,-89.93205)">
		<path id="XMLID_5_" fill="#ed1a4c" d="M 851.08067,560.20582 C 824.74032,321.79193 495.486,329.55895 495.486,329.55895 c 0,0 -329.25431,-7.42933 -355.59466,230.64687 -20.9372,188.09708 139.80645,503.16818 355.59466,503.16818 215.78822,0 376.53186,-315.0711 355.59467,-503.16818 z" style="stroke-width: 3.37697; stroke-dasharray: 2283.8; stroke-dashoffset: 2283.8; animation-delay: 0s; animation-duration: 2.11747s;"></path>
		<path id="XMLID_4_" fill="#bed730" d="m 654.54117,333.27362 c -62.8116,-35.12046 -124.9478,-42.2121 -159.05517,-39.51052 -34.10737,-2.70158 -96.24357,4.39006 -159.05516,39.51052 -65.51316,36.47124 -158.71746,-10.4686 -158.71746,-10.4686 0,0 56.05765,127.64936 172.22533,120.55773 25.32726,-1.68848 47.95294,-5.74084 67.87705,-11.81938 3.71466,36.80894 23.97646,80.70952 77.67024,128.66245 53.69379,-47.95293 73.61789,-91.85351 77.67025,-128.66245 19.92411,6.07854 42.54979,10.1309 67.87705,11.81938 116.50537,7.09163 172.22533,-120.55773 172.22533,-120.55773 0,0 -93.2043,46.93984 -158.71746,10.4686 z" style="stroke-width: 3.37697; stroke-dasharray: 1553.48; stroke-dashoffset: 1553.48; animation-delay: 0.142857s; animation-duration: 1.45414s;"></path>
		<path id="XMLID_22_" fill="#bed730" d="m 513.72163,332.59822 c 0,0 37.82203,-153.31432 69.90322,-198.56568 -32.08119,-41.536696 -90.84042,-20.9372 -90.84042,-20.9372 0,0 -18.91102,172.22534 -9.45551,221.19137 9.79321,49.30372 30.39271,-1.68849 30.39271,-1.68849 z" style="stroke-width: 3.37697; stroke-dasharray: 589.21; stroke-dashoffset: 589.21; animation-delay: 0.285714s; animation-duration: 0.609507s;"></path>
		<g id="XMLID_21_" transform="matrix(3.3769674,0,0,3.3769674,-328.15633,-256.68258)">
			<path id="XMLID_19_" fill="#bc0e3b" d="m 274.5,317.8 c 0,16.1 -12.9,29.1 -28.9,29.1 -15.9,0 -28.9,-13 -28.9,-29.1 z" style="stroke-dasharray: 148.927; stroke-dashoffset: 148.927; animation-delay: 0.428571s; animation-duration: 0.404855s;"></path>
			<g id="XMLID_15_">
				<g id="XMLID_6_">
					
						<circle id="XMLID_7_" transform="matrix(0.7071,-0.7071,0.7071,0.7071,-131.2253,219.0931)" cx="198.89999" cy="267.89999" r="12.9"></circle>
					<circle id="XMLID_8_" fill="#ffffff" cx="194.7" cy="263.70001" r="4.1999998"></circle>
				</g>
				<g id="XMLID_9_">
					
						<circle id="XMLID_11_" transform="matrix(0.7071,-0.7071,0.7071,0.7071,-103.8281,285.2358)" cx="292.39999" cy="267.89999" r="12.9"></circle>
					<circle id="XMLID_10_" fill="#ffffff" cx="288.20001" cy="263.70001" r="4.1999998"></circle>
				</g>
			</g>
			<g id="XMLID_20_">
				<circle id="XMLID_12_" fill="#f37778" cx="304.60001" cy="307.20001" r="10.6"></circle>
				<circle id="XMLID_18_" fill="#f37778" cx="186.7" cy="307.20001" r="10.6"></circle>
			</g>
		</g>
		<g id="XMLID_1_" transform="matrix(3.3769674,0,0,3.3769674,-328.15633,-256.68258)">
			<path id="XMLID_124_" fill="#f37778" d="m 176.3,220.8 c 0,2.7 2.2,4.8 4.8,4.8 2.7,0 4.8,-2.2 4.8,-4.8 0,-2.7 -2.2,-4.8 -4.8,-4.8 -2.6,-0.1 -4.8,2.1 -4.8,4.8 z" style="stroke-dasharray: 30.1929; stroke-dashoffset: 30.1929; animation-delay: 0.571429s; animation-duration: 1.34925s;"></path>
			<path id="XMLID_120_" fill="#f37778" d="m 156.8,220.8 c 0,2.7 2.2,4.8 4.8,4.8 2.7,0 4.8,-2.2 4.8,-4.8 0,-2.7 -2.2,-4.8 -4.8,-4.8 -2.6,-0.1 -4.8,2.1 -4.8,4.8 z" style="stroke-dasharray: 30.1929; stroke-dashoffset: 30.1929; animation-delay: 0.714286s; animation-duration: 1.34925s;"></path>
			<path id="XMLID_116_" fill="#f37778" d="m 153,238.8 c 0,2.4 2,4.4 4.4,4.4 2.4,0 4.4,-2 4.4,-4.4 0,-2.4 -2,-4.4 -4.4,-4.4 -2.5,0 -4.4,2 -4.4,4.4 z" style="stroke-dasharray: 27.6198; stroke-dashoffset: 27.6198; animation-delay: 0.857143s; animation-duration: 1.47s;"></path>
		</g>
	</g>
</svg>