<svg version="1.1" id="Layer_1" x="0px" y="0px" viewBox="0 0 1400 980" enable-background="new 0 0 1400 980" xml:space="preserve" sodipodi:docname="abacaxi.svg" inkscape:version="1.1 (c4e8f9ed74, 2021-05-24)" xmlns:inkscape="http://www.inkscape.org/namespaces/inkscape" xmlns:sodipodi="http://sodipodi.sourceforge.net/DTD/sodipodi-0.dtd" xmlns="http://www.w3.org/2000/svg" xmlns:svg="http://www.w3.org/2000/svg" class="animate-svg"><defs id="defs184"><style>.animate-svg path{-webkit-animation:draw ease-in-out forwards;animation:draw ease-in-out forwards;stroke:#000}.animate-svg{-webkit-animation:fillopacity 3 ease-in-out forwards;animation:fillopacity 3s ease-in-out forwards}@-webkit-keyframes draw{100%{stroke-dashoffset:0}}@keyframes draw{100%{stroke-dashoffset:0}}@-webkit-keyframes fillopacity{0%,70%{fill-opacity:0;stroke-width:0.5%}100%{fill-opacity:1;stroke-width:0}}@keyframes fillopacity{0%,70%{fill-opacity:0;stroke-width:0.5%}100%{fill-opacity:1;stroke-width:0}}</style>
	
	
	
	
	
	
	
	
</defs><sodipodi:namedview id="namedview182" pagecolor="#505050" bordercolor="#eeeeee" borderopacity="1" inkscape:pageshadow="0" inkscape:pageopacity="0" inkscape:pagecheckerboard="0" showgrid="false" inkscape:zoom="0.26938776" inkscape:cx="926.17424" inkscape:cy="475.15151" inkscape:window-width="1366" inkscape:window-height="715" inkscape:window-x="0" inkscape:window-y="25" inkscape:window-maximized="1" inkscape:current-layer="Layer_1"></sodipodi:namedview>
<g id="XMLID_270_" transform="translate(207.77762,-89.93205)">
		
		
		
		
		
	</g>
<g id="XMLID_181_" transform="matrix(1.9934724,0,0,1.9934724,183.49392,-802.1671)"><g id="XMLID_118_"><path id="XMLID_291_" fill="#fed524" d="m 389.1,766 c 0,5.9 -0.2,11.4 -0.7,16.8 -0.3,4 -0.8,7.8 -1.4,11.5 -2.9,18.5 -8.7,33.3 -16.2,45.1 -1.4,2.2 -2.8,4.2 -4.3,6.2 -16.1,21.4 -38.3,31.7 -57.9,36.6 -5,1.3 -9.8,2.1 -14.4,2.8 -17.7,2.5 -30.8,1 -30.8,1 0,0 -13.3,1.5 -31.3,-1 -4.5,-0.6 -9.3,-1.5 -14.3,-2.8 -19.6,-4.9 -41.6,-15.3 -57.6,-36.6 -1.5,-2 -2.9,-4 -4.2,-6.2 -7.4,-11.7 -13.1,-26.2 -16.1,-44.4 -0.6,-3.9 -1.2,-8.1 -1.5,-12.4 -0.5,-5.3 -0.7,-10.8 -0.7,-16.6 0,-11.1 0.5,-21.6 1.6,-31.4 0.3,-2.4 0.5,-4.8 0.9,-7.2 0.2,-1.6 0.4,-3.3 0.7,-4.9 0.4,-2.7 0.9,-5.4 1.4,-8.1 2.4,-12.4 5.6,-23.6 9.5,-33.7 1.2,-3.2 2.5,-6.2 3.9,-9.2 2,-4.4 4.1,-8.5 6.4,-12.4 1.2,-2 2.4,-4 3.6,-5.9 8.9,-13.9 19.4,-24.7 30.4,-32.9 1.8,-1.4 3.7,-2.7 5.6,-3.9 16.5,-11 33.9,-16.5 49.1,-18.5 3.2,-0.4 6.3,-0.7 9.2,-0.8 1.2,0 2.4,-0.1 3.6,-0.1 1,0 1.9,0 2.9,0 3,0.1 6,0.3 9.2,0.7 15.2,1.9 32.7,7.4 49.3,18.3 1.9,1.2 3.8,2.5 5.6,3.9 11,8.2 21.5,19 30.5,32.8 1.2,1.9 2.4,3.9 3.6,5.9 2.4,4.2 4.7,8.6 6.8,13.2 1.3,2.9 2.6,6 3.8,9.1 3.8,9.8 6.9,20.7 9.2,32.7 0.5,2.6 1,5.3 1.4,8 0.3,1.9 0.6,3.8 0.8,5.7 0.3,2.4 0.6,4.7 0.9,7.2 0.9,10 1.5,20.4 1.5,31.5 z" style="stroke-dasharray: 870.181; stroke-dashoffset: 870.181; animation-delay: 0s; animation-duration: 0.702122s;"></path><path id="XMLID_255_" fill="#ffe853" d="m 333.3,767.3 c 4.6,-3.5 8.9,-6.9 13,-10.2 10.8,-8.7 20.7,-17.4 29.5,-25.6 3.8,1.2 7.7,2.3 11.7,3.3 -0.3,-2.4 -0.5,-4.8 -0.9,-7.2 -1.7,-0.5 -3.5,-1 -5.2,-1.5 1.5,-1.4 2.9,-2.8 4.3,-4.2 -0.4,-2.7 -0.9,-5.4 -1.4,-8 -3.2,3.2 -6.7,6.6 -10.3,10 -19.7,-6.2 -38.4,-14.1 -55.7,-23 13,-10.6 24.5,-21 34.5,-30.6 7.2,3.8 14.6,7.4 22.3,10.8 -1.2,-3.2 -2.5,-6.2 -3.8,-9.1 -4.5,-2.1 -9,-4.4 -13.4,-6.6 2.3,-2.3 4.5,-4.5 6.6,-6.6 -1.2,-2 -2.4,-4 -3.6,-5.9 -2.9,2.9 -5.9,6 -9.2,9.2 -14.5,-7.8 -27.9,-16.1 -40.2,-24.5 6.8,-6 13.2,-11.9 18.9,-17.5 -1.9,-1.4 -3.7,-2.7 -5.6,-3.9 -5.8,5.6 -12.2,11.5 -19,17.5 -9.6,-6.8 -18.6,-13.6 -26.6,-20 -3.8,-3.1 -7.5,-6.1 -11,-9.2 2.5,-2.2 5,-4.4 7.4,-6.6 -3.2,-0.4 -6.3,-0.6 -9.2,-0.7 -1.1,1 -2.2,1.9 -3.3,2.9 -1.1,-1 -2.2,-1.9 -3.2,-2.8 -2.9,0.1 -6,0.4 -9.2,0.8 2.4,2.1 4.8,4.3 7.3,6.5 -3.5,3 -7.1,6 -10.9,9.1 -8.1,6.5 -17,13.3 -26.7,20.2 -6.8,-5.9 -13,-11.7 -18.7,-17.2 -1.9,1.2 -3.8,2.6 -5.6,3.9 5.7,5.5 11.9,11.3 18.7,17.2 -12.3,8.4 -25.8,16.7 -40.2,24.5 -3.1,-3 -6,-6 -8.8,-8.8 -1.2,1.9 -2.4,3.9 -3.6,5.9 2,2 4,4.1 6.2,6.2 -4.1,2.1 -8.3,4.2 -12.5,6.2 -1.4,2.9 -2.6,6 -3.9,9.2 7.4,-3.3 14.5,-6.8 21.5,-10.5 10,9.6 21.6,20 34.5,30.6 -17.3,8.8 -36,16.7 -55.7,23 -3.4,-3.2 -6.7,-6.4 -9.8,-9.4 -0.5,2.6 -1,5.3 -1.4,8.1 1.2,1.2 2.5,2.4 3.8,3.6 -1.5,0.4 -3,0.9 -4.5,1.3 -0.3,2.4 -0.6,4.7 -0.9,7.2 3.7,-1 7.3,-2 11,-3.1 8.8,8.2 18.7,16.9 29.5,25.6 4.1,3.3 8.5,6.7 13,10.2 -17.3,6.5 -35.4,11.8 -54.4,15.3 0.4,4.3 0.9,8.4 1.5,12.4 4.8,4.1 9.8,8.4 15,12.6 10,8.1 21.4,16.7 33.9,25.2 -10.7,2.8 -21.6,5 -32.9,6.6 1.4,2.2 2.8,4.2 4.2,6.2 12.3,-1.9 24.4,-4.6 36,-7.8 17.5,11.4 37,22.5 58.2,32 -11.8,4.7 -24,8.9 -36.6,12.4 5,1.3 9.8,2.2 14.3,2.8 10.6,-3.4 20.9,-7.2 30.9,-11.4 10,4.2 20.4,8.1 31.1,11.5 4.5,-0.6 9.4,-1.5 14.4,-2.8 -12.7,-3.5 -25.1,-7.7 -36.9,-12.5 21.2,-9.6 40.7,-20.6 58.2,-32 11.9,3.3 24.1,6 36.7,7.9 1.5,-2 2.9,-4 4.3,-6.2 -11.4,-1.6 -22.6,-3.9 -33.5,-6.7 12.5,-8.5 23.9,-17 33.9,-25.2 5.5,-4.5 10.8,-8.9 15.8,-13.3 0.6,-3.7 1.1,-7.5 1.4,-11.5 -19.3,-3.9 -37.7,-9.2 -55.2,-15.8 z m 35.2,-38.2 c -8,7.3 -16.8,15 -26.3,22.7 -5.1,4.1 -10.5,8.3 -16.2,12.5 -20.3,-8.2 -39.2,-17.9 -56.5,-28.2 16.1,-10.2 30.6,-20.7 43.2,-30.6 17.3,9 36,17.2 55.8,23.6 z m -48.9,40 C 303,781 284,793.1 263.1,803.9 242.2,793.1 223.2,781 206.6,769.1 c 20.4,-8.5 39.3,-18.4 56.5,-28.9 17.2,10.4 36.1,20.4 56.5,28.9 z m -99.6,-67 c 15.6,-8.4 30,-17.5 43.1,-26.5 13.1,9.1 27.5,18.1 43.1,26.5 -12.6,9.9 -27.1,20.2 -43.1,30.2 C 247,722.3 232.6,712 220,702.1 Z m 86.3,-60 c 12.3,8.5 25.9,16.9 40.4,24.9 -10,9.5 -21.5,19.9 -34.4,30.3 -0.1,0.1 -0.2,0.2 -0.4,0.3 -15.5,-8.2 -29.9,-17.1 -43,-26.1 8.8,-6.3 17,-12.5 24.4,-18.5 4.5,-3.7 8.8,-7.3 13,-10.9 z m -55.1,-23.4 c 4.1,-3.3 8,-6.6 11.8,-9.8 3.8,3.3 7.7,6.5 11.8,9.8 7.8,6.3 16.4,12.9 25.7,19.5 -3.7,3.2 -7.6,6.4 -11.6,9.7 -7.9,6.3 -16.5,13 -25.9,19.6 -9.4,-6.6 -18.1,-13.2 -25.9,-19.6 -4,-3.2 -7.9,-6.5 -11.6,-9.7 9.3,-6.6 17.9,-13.2 25.7,-19.5 z M 179.5,667 c 14.5,-7.9 28,-16.4 40.4,-24.9 4.2,3.6 8.5,7.2 12.9,10.8 7.4,6 15.6,12.3 24.4,18.5 -13.1,8.9 -27.5,17.8 -43,26.1 -0.1,-0.1 -0.2,-0.2 -0.4,-0.3 C 201,686.9 189.4,676.5 179.5,667 Z m 4.6,85 c -9.6,-7.8 -18.5,-15.5 -26.5,-22.8 19.8,-6.5 38.5,-14.6 55.8,-23.6 12.6,10 27.1,20.5 43.2,30.6 -17.2,10.3 -36.2,20.1 -56.5,28.2 -5.6,-4.2 -10.9,-8.4 -16,-12.4 z m -24.8,50.5 c -5.8,-4.6 -11.3,-9.3 -16.5,-13.8 19.7,-3.9 38.5,-9.6 56.3,-16.6 16.5,12.1 35.5,24.4 56.5,35.6 -18.1,8.9 -37.7,16.8 -58.3,22.8 -14.1,-9.5 -26.8,-19 -38,-28 z m 103.8,63.7 c -21.1,-9.1 -40.7,-19.8 -58.2,-31 20.6,-6.4 40.1,-14.6 58.2,-23.7 18.1,9.2 37.6,17.4 58.2,23.7 -17.6,11.1 -37.1,21.8 -58.2,31 z m 103.7,-63.7 c -11.1,9 -23.9,18.5 -38.1,27.9 -20.6,-6 -40.1,-13.8 -58.3,-22.8 21,-11.2 40,-23.5 56.5,-35.6 17.8,7 36.7,12.7 56.3,16.6 -5.1,4.6 -10.6,9.2 -16.4,13.9 z" style="stroke-dasharray: 3937.18; stroke-dashoffset: 3937.18; animation-delay: 0.0833333s; animation-duration: 2.1526s;"></path><g id="XMLID_122_"><path id="XMLID_228_" fill="#bc0e3b" d="m 292.3,785 c 0,16.1 -12.9,29.1 -28.9,29.1 -15.9,0 -28.9,-13 -28.9,-29.1 z" style="stroke-dasharray: 148.927; stroke-dashoffset: 148.927; animation-delay: 0.166667s; animation-duration: 1.47s;"></path><g id="XMLID_221_"><g id="XMLID_225_"><circle id="XMLID_227_" transform="matrix(0.7071,-0.7071,0.7071,0.7071,-456.3799,368.5071)" cx="216.60001" cy="735.20001" r="12.9"></circle><circle id="XMLID_226_" fill="#ffffff" cx="212.39999" cy="731" r="4.1999998"></circle></g><g id="XMLID_222_"><circle id="XMLID_224_" transform="matrix(0.7071,-0.7071,0.7071,0.7071,-428.9827,434.6499)" cx="310.20001" cy="735.20001" r="12.9"></circle><circle id="XMLID_223_" fill="#ffffff" cx="306" cy="731" r="4.1999998"></circle></g></g><g id="XMLID_199_"><circle id="XMLID_206_" transform="matrix(0.2287,-0.9735,0.9735,0.2287,-505.2033,911.0731)" fill="#f37778" cx="322.39999" cy="774.40002" r="10.6"></circle><circle id="XMLID_200_" transform="matrix(0.9228,-0.3852,0.3852,0.9228,-282.4921,138.4998)" fill="#f37778" cx="204.5" cy="774.40002" r="10.6"></circle></g></g></g><g id="XMLID_101_"><path id="XMLID_202_" fill="#9ccb3b" d="m 256,544 c -10.9,-36.8 -29.4,-65 -114.9,-87 32.2,29.2 26.8,87 114.9,87 z" style="stroke-dasharray: 306.546; stroke-dashoffset: 306.546; animation-delay: 0.25s; animation-duration: 0.839073s;"></path><path id="XMLID_197_" fill="#c3d833" d="m 254.8,544 c 10.9,-36.8 29.4,-65 114.9,-87 -32.2,29.2 -26.8,87 -114.9,87 z" style="stroke-dasharray: 306.546; stroke-dashoffset: 306.546; animation-delay: 0.333333s; animation-duration: 0.839073s;"></path><path id="XMLID_189_" fill="#d5e273" d="m 254.8,407.1 c 0,0 -69.4,98.9 0,137 69.3,-38.2 0,-137 0,-137 z" style="stroke-dasharray: 310.716; stroke-dashoffset: 310.716; animation-delay: 0.416667s; animation-duration: 0.832229s;"></path><path id="XMLID_209_" fill="#d5e273" d="m 256,590.1 c -10.9,-36.8 -29.4,-65 -114.9,-87 32.2,29.1 26.8,87 114.9,87 z" style="stroke-dasharray: 306.535; stroke-dashoffset: 306.535; animation-delay: 0.5s; animation-duration: 0.839091s;"></path><path id="XMLID_205_" fill="#9ccb3b" d="m 254.8,590.1 c 10.9,-36.8 29.4,-65 114.9,-87 -32.2,29.1 -26.8,87 -114.9,87 z" style="stroke-dasharray: 306.535; stroke-dashoffset: 306.535; animation-delay: 0.583333s; animation-duration: 0.839091s;"></path><path id="XMLID_203_" fill="#c3d833" d="m 254.8,453.1 c 0,0 -69.4,98.9 0,137 69.3,-38.1 0,-137 0,-137 z" style="stroke-dasharray: 310.724; stroke-dashoffset: 310.724; animation-delay: 0.666667s; animation-duration: 0.832217s;"></path><path id="XMLID_214_" fill="#c3d833" d="m 256,636.1 c -10.9,-36.8 -29.4,-65 -114.9,-87 32.2,29.2 26.8,87 114.9,87 z" style="stroke-dasharray: 306.546; stroke-dashoffset: 306.546; animation-delay: 0.75s; animation-duration: 0.839073s;"></path><path id="XMLID_211_" fill="#d5e273" d="m 254.8,636.1 c 10.9,-36.8 29.4,-65 114.9,-87 -32.2,29.2 -26.8,87 -114.9,87 z" style="stroke-dasharray: 306.546; stroke-dashoffset: 306.546; animation-delay: 0.833333s; animation-duration: 0.839073s;"></path><path id="XMLID_210_" fill="#9ccb3b" d="m 254.8,499.1 c 0,0 -69.4,98.9 0,137 69.3,-38.1 0,-137 0,-137 z" style="stroke-dasharray: 310.724; stroke-dashoffset: 310.724; animation-delay: 0.916667s; animation-duration: 0.832217s;"></path></g></g></svg>