<svg version="1.1" id="Layer_1" x="0px" y="0px" viewBox="0 0 1400 980" enable-background="new 0 0 1400 980" xml:space="preserve" sodipodi:docname="banana.svg" inkscape:version="1.1 (c4e8f9ed74, 2021-05-24)" xmlns:inkscape="http://www.inkscape.org/namespaces/inkscape" xmlns:sodipodi="http://sodipodi.sourceforge.net/DTD/sodipodi-0.dtd" xmlns="http://www.w3.org/2000/svg" xmlns:svg="http://www.w3.org/2000/svg" class="animate-svg"><defs id="defs184"><style>.animate-svg path{-webkit-animation:draw ease-in-out forwards;animation:draw ease-in-out forwards;stroke:#000}.animate-svg{-webkit-animation:fillopacity 3 ease-in-out forwards;animation:fillopacity 3s ease-in-out forwards}@-webkit-keyframes draw{100%{stroke-dashoffset:0}}@keyframes draw{100%{stroke-dashoffset:0}}@-webkit-keyframes fillopacity{0%,70%{fill-opacity:0;stroke-width:0.5%}100%{fill-opacity:1;stroke-width:0}}@keyframes fillopacity{0%,70%{fill-opacity:0;stroke-width:0.5%}100%{fill-opacity:1;stroke-width:0}}</style>
	
	
	
	
	
	
	
	
</defs><sodipodi:namedview id="namedview182" pagecolor="#505050" bordercolor="#eeeeee" borderopacity="1" inkscape:pageshadow="0" inkscape:pageopacity="0" inkscape:pagecheckerboard="0" showgrid="false" inkscape:zoom="0.26938776" inkscape:cx="926.17424" inkscape:cy="694.16667" inkscape:window-width="1366" inkscape:window-height="715" inkscape:window-x="0" inkscape:window-y="25" inkscape:window-maximized="1" inkscape:current-layer="Layer_1"></sodipodi:namedview>

<g id="XMLID_232_" transform="matrix(2.6053381,0,0,2.6053381,-2078.0838,-1270.8143)"><g id="XMLID_231_"><path id="XMLID_246_" fill="#fed524" d="m 868.9,779.3 c 0,0 59.9,79.5 189.9,65.6 130,-13.9 202.4,-144.8 191.9,-211 -7.4,-47 -28.1,-55.6 -41.3,-67.2 -5.4,-4.7 -9.6,-10 -11.1,-18.5 -5.2,-29.4 2.1,-50.4 2.1,-50.4 0,0 -5.7,8.3 -18.5,10.8 -6.1,1.2 -13.8,1 -23.2,-1.9 0,0 19.7,41 17.2,57.9 -2.6,16.9 -10.5,4.9 -21,44.2 -10.5,39.3 -43.3,129.2 -119.9,138.6 -76.7,9.4 -102.9,-10.4 -155.1,-0.5 -4.5,4.2 -7.6,8.2 -9.5,11.8 -6.7,12.1 -1.5,20.6 -1.5,20.6 z" style="stroke-dasharray: 1218.34; stroke-dashoffset: 1218.34; animation-delay: 0s; animation-duration: 2.01829s;"></path><path id="XMLID_243_" fill="#ffe71e" d="m 868.9,779.3 c 0,0 70.6,92.1 200.5,78.2 130,-13.9 202.4,-144.8 191.9,-211 -7.4,-47 -38.8,-68.2 -52,-79.8 -5.4,-4.7 -9.6,-10 -11.1,-18.5 -5.2,-29.4 2.1,-50.4 2.1,-50.4 -1.4,-0.9 -2.7,-1.7 -4,-2.4 l -14.5,13.2 c 0,0 0,0 0,0 0,0.9 -0.3,31.2 7.9,56.4 6.8,21 8.5,43.4 4.2,65 -8.6,42.6 -29.5,92.4 -78.4,124.3 -82,53.4 -196.4,21.4 -235.7,7.8 -4,-1.4 -7.2,-2.6 -9.5,-3.5 -6.6,12.2 -1.4,20.7 -1.4,20.7 z" style="stroke-dasharray: 1280.55; stroke-dashoffset: 1280.55; animation-delay: 0.1s; animation-duration: 2.11932s;"></path><path id="XMLID_241_" fill="#c49a6c" d="m 1158.6,506.6 c 9.5,3 17.1,3.1 23.2,1.9 12.8,-2.5 18.5,-10.8 18.5,-10.8 -1.4,-0.9 -2.7,-1.7 -4,-2.4 -23.8,-12.6 -37.7,11.3 -37.7,11.3 z" style="stroke-dasharray: 93.8856; stroke-dashoffset: 93.8856; animation-delay: 0.2s; animation-duration: 0.417521s;"></path><path id="XMLID_240_" fill="#c49a6c" d="m 868.9,779.3 c 6.2,-6.3 9.4,-12.2 10.9,-17.2 2.8,-9.2 0,-15.3 0,-15.3 -4.5,4.2 -7.6,8.2 -9.5,11.8 -6.6,12.2 -1.4,20.7 -1.4,20.7 z" style="stroke-dasharray: 72.9444; stroke-dashoffset: 72.9444; animation-delay: 0.3s; animation-duration: 0.458842s;"></path></g><g id="XMLID_233_"><path id="XMLID_265_" fill="#bc0e3b" d="m 1207.8,702.7 c -3.6,9.9 -14.6,15 -24.4,11.4 -9.8,-3.6 -14.9,-14.6 -11.2,-24.5 z" style="stroke-dasharray: 97.7855; stroke-dashoffset: 97.7855; animation-delay: 0.4s; animation-duration: 0.413405s;"></path><g id="XMLID_244_"><g id="XMLID_252_"><path id="XMLID_264_" d="m 1180.4,657.8 c -1.6,4.4 -6.5,6.6 -10.9,5 -4.4,-1.6 -6.6,-6.5 -5,-10.9 1.6,-4.4 6.5,-6.6 10.9,-5 4.3,1.7 6.6,6.5 5,10.9 z" style="stroke-dasharray: 53.2342; stroke-dashoffset: 53.2342; animation-delay: 0.5s; animation-duration: 0.552117s;"></path><path id="XMLID_253_" fill="#ffffff" d="m 1173.4,652.3 c -0.5,1.4 -2.1,2.2 -3.5,1.6 -1.4,-0.5 -2.2,-2.1 -1.6,-3.5 0.5,-1.4 2.1,-2.2 3.5,-1.6 1.4,0.6 2.1,2.1 1.6,3.5 z" style="stroke-dasharray: 17.1613; stroke-dashoffset: 17.1613; animation-delay: 0.6s; animation-duration: 1.47s;"></path></g><g id="XMLID_245_"><path id="XMLID_251_" d="m 1238.1,678.9 c -1.6,4.4 -6.5,6.6 -10.9,5 -4.4,-1.6 -6.6,-6.5 -5,-10.9 1.6,-4.4 6.5,-6.6 10.9,-5 4.3,1.7 6.6,6.6 5,10.9 z" style="stroke-dasharray: 53.2244; stroke-dashoffset: 53.2244; animation-delay: 0.7s; animation-duration: 0.552186s;"></path><path id="XMLID_250_" fill="#ffffff" d="m 1231.1,673.4 c -0.5,1.4 -2.1,2.2 -3.5,1.6 -1.4,-0.5 -2.2,-2.1 -1.6,-3.5 0.5,-1.4 2.1,-2.2 3.5,-1.6 1.4,0.5 2.1,2.1 1.6,3.5 z" style="stroke-dasharray: 17.1815; stroke-dashoffset: 17.1815; animation-delay: 0.8s; animation-duration: 1.46834s;"></path></g></g><g id="XMLID_234_"><path id="XMLID_238_" fill="#f37778" d="m 1235.3,705.4 c -1.3,3.6 -5.3,5.5 -9,4.2 -3.6,-1.3 -5.5,-5.3 -4.2,-9 1.3,-3.7 5.3,-5.5 9,-4.2 3.7,1.3 5.6,5.3 4.2,9 z" style="stroke-dasharray: 44.1819; stroke-dashoffset: 44.1819; animation-delay: 0.9s; animation-duration: 0.632506s;"></path><circle id="XMLID_235_" transform="matrix(0.9741,-0.2263,0.2263,0.9741,-123.0733,279.1936)" fill="#f37778" cx="1156.1" cy="676.29999" r="7"></circle></g></g></g></svg>