<svg version="1.1" id="Layer_1" x="0px" y="0px" viewBox="0 0 1400 980" enable-background="new 0 0 1400 980" xml:space="preserve" sodipodi:docname="melancia.svg" inkscape:version="1.1 (c4e8f9ed74, 2021-05-24)" xmlns:inkscape="http://www.inkscape.org/namespaces/inkscape" xmlns:sodipodi="http://sodipodi.sourceforge.net/DTD/sodipodi-0.dtd" xmlns="http://www.w3.org/2000/svg" xmlns:svg="http://www.w3.org/2000/svg" class="animate-svg"><defs id="defs184"><style>.animate-svg path{-webkit-animation:draw ease-in-out forwards;animation:draw ease-in-out forwards;stroke:#000}.animate-svg{-webkit-animation:fillopacity 3 ease-in-out forwards;animation:fillopacity 3s ease-in-out forwards}@-webkit-keyframes draw{100%{stroke-dashoffset:0}}@keyframes draw{100%{stroke-dashoffset:0}}@-webkit-keyframes fillopacity{0%,70%{fill-opacity:0;stroke-width:0.5%}100%{fill-opacity:1;stroke-width:0}}@keyframes fillopacity{0%,70%{fill-opacity:0;stroke-width:0.5%}100%{fill-opacity:1;stroke-width:0}}</style>
	
	
	
	
	
	
	
	
</defs><sodipodi:namedview id="namedview182" pagecolor="#505050" bordercolor="#eeeeee" borderopacity="1" inkscape:pageshadow="0" inkscape:pageopacity="0" inkscape:pagecheckerboard="0" showgrid="false" inkscape:zoom="0.26938776" inkscape:cx="926.17424" inkscape:cy="694.16667" inkscape:window-width="1366" inkscape:window-height="715" inkscape:window-x="0" inkscape:window-y="25" inkscape:window-maximized="1" inkscape:current-layer="Layer_1"></sodipodi:namedview>

<g id="XMLID_113_" transform="matrix(3.1476149,0,0,3.1476149,-1982.2435,-1286.3085)"><path id="XMLID_99_" fill="#c3d833" d="m 1066.9,469.9 c 0,107.9 -95.3,195.5 -212.8,195.5 -117.5,0 -212.8,-87.5 -212.8,-195.5 z" style="stroke-dasharray: 1067.31; stroke-dashoffset: 1067.31; animation-delay: 0s; animation-duration: 2.26423s;"></path><path id="XMLID_136_" fill="#d5e273" d="m 1045,469.9 c 0,96.8 -85.4,175.3 -190.8,175.3 -105.4,0 -190.8,-78.5 -190.8,-175.3 z" style="stroke-dasharray: 957.011; stroke-dashoffset: 957.011; animation-delay: 0.25s; animation-duration: 2.06613s;"></path><path id="XMLID_125_" fill="#ed1a4c" d="m 1025.5,469.9 c 0,86.9 -76.7,157.4 -171.3,157.4 -94.6,0 -171.3,-70.5 -171.3,-157.4 z" style="stroke-dasharray: 859.209; stroke-dashoffset: 859.209; animation-delay: 0.5s; animation-duration: 1.89455s;"></path><g id="XMLID_127_"><path id="XMLID_147_" fill="#bc0e3b" d="m 883,558.2 c 0,16.1 -12.9,29.1 -28.9,29.1 -15.9,0 -28.9,-13 -28.9,-29.1 z" style="stroke-dasharray: 148.927; stroke-dashoffset: 148.927; animation-delay: 0.75s; animation-duration: 1.47s;"></path><g id="XMLID_140_"><g id="XMLID_144_"><circle id="XMLID_146_" transform="matrix(0.1608,-0.987,0.987,0.1608,175.7682,1223.5167)" cx="807.40002" cy="508.39999" r="12.9"></circle><circle id="XMLID_145_" fill="#ffffff" cx="803.20001" cy="504.20001" r="4.1999998"></circle></g><g id="XMLID_141_"><circle id="XMLID_143_" transform="matrix(0.7071,-0.7071,0.7071,0.7071,-95.6111,785.9635)" cx="900.90002" cy="508.39999" r="12.9"></circle><circle id="XMLID_142_" fill="#ffffff" cx="896.70001" cy="504.20001" r="4.1999998"></circle></g></g><g id="XMLID_128_"><circle id="XMLID_132_" transform="matrix(0.7071,-0.7071,0.7071,0.7071,-119.7674,806.0618)" fill="#f37778" cx="913.09998" cy="547.59998" r="10.6"></circle><circle id="XMLID_129_" transform="matrix(0.1512,-0.9885,0.9885,0.1512,133.6838,1250.8895)" fill="#f37778" cx="795.20001" cy="547.59998" r="10.6"></circle></g></g></g></svg>