<svg version="1.1" id="Layer_1" x="0px" y="0px" viewBox="0 0 1400 980" enable-background="new 0 0 1400 980" xml:space="preserve" sodipodi:docname="uva.svg" inkscape:version="1.1 (c4e8f9ed74, 2021-05-24)" xmlns:inkscape="http://www.inkscape.org/namespaces/inkscape" xmlns:sodipodi="http://sodipodi.sourceforge.net/DTD/sodipodi-0.dtd" xmlns="http://www.w3.org/2000/svg" xmlns:svg="http://www.w3.org/2000/svg" class="animate-svg"><defs id="defs184"><style>.animate-svg path{-webkit-animation:draw ease-in-out forwards;animation:draw ease-in-out forwards;stroke:#000}.animate-svg{-webkit-animation:fillopacity 3 ease-in-out forwards;animation:fillopacity 3s ease-in-out forwards}@-webkit-keyframes draw{100%{stroke-dashoffset:0}}@keyframes draw{100%{stroke-dashoffset:0}}@-webkit-keyframes fillopacity{0%,70%{fill-opacity:0;stroke-width:0.5%}100%{fill-opacity:1;stroke-width:0}}@keyframes fillopacity{0%,70%{fill-opacity:0;stroke-width:0.5%}100%{fill-opacity:1;stroke-width:0}}</style>
	
	
	
	
	
	
	
	
</defs><sodipodi:namedview id="namedview182" pagecolor="#505050" bordercolor="#eeeeee" borderopacity="1" inkscape:pageshadow="0" inkscape:pageopacity="0" inkscape:pagecheckerboard="0" showgrid="false" inkscape:zoom="0.26938776" inkscape:cx="926.17424" inkscape:cy="475.15151" inkscape:window-width="1366" inkscape:window-height="715" inkscape:window-x="0" inkscape:window-y="25" inkscape:window-maximized="1" inkscape:current-layer="XMLID_270_"></sodipodi:namedview>
<g id="XMLID_270_" transform="translate(207.77762,-89.93205)">
		
		
		
		
		
	<g id="XMLID_167_" transform="matrix(2.3171109,0,0,2.3171109,-709.15688,-108.49177)"><g id="XMLID_130_"><path id="XMLID_190_" fill="#bed730" d="m 423.2,93.8 101,122.9 c 0,0 -12.6,38.3 -43,35.3 -53.2,-5.2 -78.9,-32.5 -78.9,-32.5 0,0 22.9,-29.5 39.6,-30.7 2.6,-0.2 4.9,-0.3 7,-0.4 5.4,-0.2 6.6,-7.7 1.5,-9.5 -45.3,-16.1 -27.2,-85.1 -27.2,-85.1 z" style="stroke-dasharray: 475.651; stroke-dashoffset: 475.651; animation-delay: 0s; animation-duration: 2.1734s;"></path><path id="XMLID_166_" fill="#9ccb3b" d="m 423.2,93.8 101,122.9 c 0,0 40,-4.9 42.9,-35.4 5.2,-53.2 -16.6,-83.7 -16.6,-83.7 0,0 -33.4,16.8 -37.8,32.9 -0.7,2.5 -1.2,4.8 -1.7,6.8 -1.2,5.3 -8.9,5 -9.6,-0.4 -7,-47.5 -78.2,-43.1 -78.2,-43.1 z" style="stroke-dasharray: 475.669; stroke-dashoffset: 475.669; animation-delay: 0.166667s; animation-duration: 2.17348s;"></path></g><path id="XMLID_169_" fill="#561b12" d="m 533,241.4 c 0,0 10.7,-43.5 19.9,-56.4 -9.1,-11.8 -25.8,-5.9 -25.8,-5.9 0,0 -5.4,48.9 -2.7,62.8 2.7,14 8.6,-0.5 8.6,-0.5 z" style="stroke-dasharray: 167.339; stroke-dashoffset: 167.339; animation-delay: 0.333333s; animation-duration: 0.94764s;"></path><circle id="XMLID_161_" fill="#75449a" cx="568.20001" cy="248" r="39.599998"></circle><circle id="XMLID_159_" transform="matrix(0.7071,-0.7071,0.7071,0.7071,-113.3309,517.6709)" fill="#75449a" cx="568.20001" cy="395.60001" r="39.599998"></circle><circle id="XMLID_156_" transform="matrix(0.2747,-0.9615,0.9615,0.2747,-20.4879,777.4648)" fill="#75449a" cx="505.10001" cy="402.29999" r="39.599998"></circle><circle id="XMLID_148_" fill="#663684" cx="478.39999" cy="350" r="39.599998"></circle><circle id="XMLID_126_" transform="matrix(0.1622,-0.9868,0.9868,0.1622,89.9212,703.2739)" fill="#7f509f" cx="459.10001" cy="298.70001" r="39.599998"></circle><circle id="XMLID_150_" transform="matrix(0.2259,-0.9741,0.9741,0.2259,126.8903,836.2112)" fill="#663684" cx="589.59998" cy="338.29999" r="39.599998"></circle><circle id="XMLID_138_" transform="matrix(0.7071,-0.7071,0.7071,0.7071,-44.7738,489.2736)" fill="#7f509f" cx="568.20001" cy="298.70001" r="39.599998"></circle><circle id="XMLID_149_" transform="matrix(0.2405,-0.9706,0.9706,0.2405,48.4164,804.4602)" fill="#7f509f" cx="538.29999" cy="371.29999" r="39.599998"></circle><circle id="XMLID_160_" transform="matrix(0.2337,-0.9723,0.9723,0.2337,-69.9968,841.2159)" fill="#7f509f" cx="498.70001" cy="465" r="39.599998"></circle><circle id="XMLID_134_" transform="matrix(0.2259,-0.9741,0.9741,0.2259,82.211,757.8127)" fill="#75449a" cx="517.90002" cy="327.20001" r="39.599998"></circle><circle id="XMLID_131_" transform="matrix(0.7071,-0.7071,0.7071,0.7071,-44.2954,441.2222)" fill="#663684" cx="510.5" cy="274.10001" r="39.599998"></circle><circle id="XMLID_162_" transform="matrix(0.7071,-0.7071,0.7071,0.7071,-22.5228,520.8209)" fill="#75449a" cx="617.40002" cy="287.60001" r="39.599998"></circle><circle id="XMLID_158_" transform="matrix(0.2337,-0.9723,0.9723,0.2337,-5.6889,871.4669)" fill="#663684" cx="550" cy="439.29999" r="39.599998"></circle><g id="XMLID_163_"><path id="XMLID_178_" fill="#bc0e3b" d="m 568.1,362.2 c 0,15.9 -12.8,28.8 -28.5,28.8 -15.7,0 -28.5,-12.9 -28.5,-28.8 z" style="stroke-dasharray: 147; stroke-dashoffset: 147; animation-delay: 0.5s; animation-duration: 0.886744s;"></path><g id="XMLID_171_"><g id="XMLID_175_"><circle id="XMLID_177_" transform="matrix(0.2285,-0.9735,0.9735,0.2285,75.9079,721.8549)" cx="493.39999" cy="313" r="12.7"></circle><path id="XMLID_176_" fill="#ffffff" d="m 493.4,308.9 c 0,2.3 -1.9,4.1 -4.1,4.1 -2.3,0 -4.1,-1.9 -4.1,-4.1 0,-2.3 1.9,-4.1 4.1,-4.1 2.2,-0.1 4.1,1.8 4.1,4.1 z" style="stroke-dasharray: 25.7709; stroke-dashoffset: 25.7709; animation-delay: 0.666667s; animation-duration: 1.47s;"></path></g><g id="XMLID_172_"><circle id="XMLID_174_" transform="matrix(0.2285,-0.9735,0.9735,0.2285,147.1451,811.7487)" cx="585.70001" cy="313" r="12.7"></circle><path id="XMLID_173_" fill="#ffffff" d="m 585.7,308.9 c 0,2.3 -1.9,4.1 -4.1,4.1 -2.3,0 -4.1,-1.9 -4.1,-4.1 0,-2.3 1.9,-4.1 4.1,-4.1 2.3,-0.1 4.1,1.8 4.1,4.1 z" style="stroke-dasharray: 25.7928; stroke-dashoffset: 25.7928; animation-delay: 0.833333s; animation-duration: 1.46895s;"></path></g></g><g id="XMLID_164_"><circle id="XMLID_168_" fill="#f37778" cx="597.79999" cy="351.70001" r="10.5"></circle><circle id="XMLID_165_" fill="#f37778" cx="481.39999" cy="351.70001" r="10.5"></circle></g></g></g></g>
</svg>